<svg width="15" height="18" viewBox="0 0 15 18" fill="none" xmlns="http://www.w3.org/2000/svg">
<path d="M3.85714 13.1787V13.8216C3.85714 13.9086 3.82366 13.9856 3.7567 14.0526C3.69643 14.1129 3.62277 14.143 3.53571 14.143H2.89286C2.8058 14.143 2.72879 14.1129 2.66183 14.0526C2.60156 13.9856 2.57143 13.9086 2.57143 13.8216V13.1787C2.57143 13.0917 2.60156 13.018 2.66183 12.9577C2.72879 12.8908 2.8058 12.8573 2.89286 12.8573H3.53571C3.62277 12.8573 3.69643 12.8908 3.7567 12.9577C3.82366 13.018 3.85714 13.0917 3.85714 13.1787ZM3.85714 10.6073V11.2501C3.85714 11.3372 3.82366 11.4142 3.7567 11.4812C3.69643 11.5414 3.62277 11.5716 3.53571 11.5716H2.89286C2.8058 11.5716 2.72879 11.5414 2.66183 11.4812C2.60156 11.4142 2.57143 11.3372 2.57143 11.2501V10.6073C2.57143 10.5202 2.60156 10.4466 2.66183 10.3863C2.72879 10.3193 2.8058 10.2859 2.89286 10.2859H3.53571C3.62277 10.2859 3.69643 10.3193 3.7567 10.3863C3.82366 10.4466 3.85714 10.5202 3.85714 10.6073ZM6.42857 10.6073V11.2501C6.42857 11.3372 6.39509 11.4142 6.32813 11.4812C6.26786 11.5414 6.1942 11.5716 6.10714 11.5716H5.46429C5.37723 11.5716 5.30022 11.5414 5.23326 11.4812C5.17299 11.4142 5.14286 11.3372 5.14286 11.2501V10.6073C5.14286 10.5202 5.17299 10.4466 5.23326 10.3863C5.30022 10.3193 5.37723 10.2859 5.46429 10.2859H6.10714C6.1942 10.2859 6.26786 10.3193 6.32813 10.3863C6.39509 10.4466 6.42857 10.5202 6.42857 10.6073ZM3.85714 8.03585V8.67871C3.85714 8.76576 3.82366 8.84277 3.7567 8.90974C3.69643 8.97001 3.62277 9.00014 3.53571 9.00014H2.89286C2.8058 9.00014 2.72879 8.97001 2.66183 8.90974C2.60156 8.84277 2.57143 8.76576 2.57143 8.67871V8.03585C2.57143 7.9488 2.60156 7.87514 2.66183 7.81487C2.72879 7.74791 2.8058 7.71442 2.89286 7.71442H3.53571C3.62277 7.71442 3.69643 7.74791 3.7567 7.81487C3.82366 7.87514 3.85714 7.9488 3.85714 8.03585ZM11.5714 13.1787V13.8216C11.5714 13.9086 11.5379 13.9856 11.471 14.0526C11.4107 14.1129 11.3371 14.143 11.25 14.143H10.6071C10.5201 14.143 10.4431 14.1129 10.3761 14.0526C10.3158 13.9856 10.2857 13.9086 10.2857 13.8216V13.1787C10.2857 13.0917 10.3158 13.018 10.3761 12.9577C10.4431 12.8908 10.5201 12.8573 10.6071 12.8573H11.25C11.3371 12.8573 11.4107 12.8908 11.471 12.9577C11.5379 13.018 11.5714 13.0917 11.5714 13.1787ZM9 10.6073V11.2501C9 11.3372 8.96652 11.4142 8.89955 11.4812C8.83929 11.5414 8.76563 11.5716 8.67857 11.5716H8.03571C7.94866 11.5716 7.87165 11.5414 7.80469 11.4812C7.74442 11.4142 7.71429 11.3372 7.71429 11.2501V10.6073C7.71429 10.5202 7.74442 10.4466 7.80469 10.3863C7.87165 10.3193 7.94866 10.2859 8.03571 10.2859H8.67857C8.76563 10.2859 8.83929 10.3193 8.89955 10.3863C8.96652 10.4466 9 10.5202 9 10.6073ZM6.42857 8.03585V8.67871C6.42857 8.76576 6.39509 8.84277 6.32813 8.90974C6.26786 8.97001 6.1942 9.00014 6.10714 9.00014H5.46429C5.37723 9.00014 5.30022 8.97001 5.23326 8.90974C5.17299 8.84277 5.14286 8.76576 5.14286 8.67871V8.03585C5.14286 7.9488 5.17299 7.87514 5.23326 7.81487C5.30022 7.74791 5.37723 7.71442 5.46429 7.71442H6.10714C6.1942 7.71442 6.26786 7.74791 6.32813 7.81487C6.39509 7.87514 6.42857 7.9488 6.42857 8.03585ZM3.85714 5.46442V6.10728C3.85714 6.19434 3.82366 6.27134 3.7567 6.33831C3.69643 6.39858 3.62277 6.42871 3.53571 6.42871H2.89286C2.8058 6.42871 2.72879 6.39858 2.66183 6.33831C2.60156 6.27134 2.57143 6.19434 2.57143 6.10728V5.46442C2.57143 5.37737 2.60156 5.30371 2.66183 5.24344C2.72879 5.17648 2.8058 5.143 2.89286 5.143H3.53571C3.62277 5.143 3.69643 5.17648 3.7567 5.24344C3.82366 5.30371 3.85714 5.37737 3.85714 5.46442ZM11.5714 10.6073V11.2501C11.5714 11.3372 11.5379 11.4142 11.471 11.4812C11.4107 11.5414 11.3371 11.5716 11.25 11.5716H10.6071C10.5201 11.5716 10.4431 11.5414 10.3761 11.4812C10.3158 11.4142 10.2857 11.3372 10.2857 11.2501V10.6073C10.2857 10.5202 10.3158 10.4466 10.3761 10.3863C10.4431 10.3193 10.5201 10.2859 10.6071 10.2859H11.25C11.3371 10.2859 11.4107 10.3193 11.471 10.3863C11.5379 10.4466 11.5714 10.5202 11.5714 10.6073ZM9 8.03585V8.67871C9 8.76576 8.96652 8.84277 8.89955 8.90974C8.83929 8.97001 8.76563 9.00014 8.67857 9.00014H8.03571C7.94866 9.00014 7.87165 8.97001 7.80469 8.90974C7.74442 8.84277 7.71429 8.76576 7.71429 8.67871V8.03585C7.71429 7.9488 7.74442 7.87514 7.80469 7.81487C7.87165 7.74791 7.94866 7.71442 8.03571 7.71442H8.67857C8.76563 7.71442 8.83929 7.74791 8.89955 7.81487C8.96652 7.87514 9 7.9488 9 8.03585ZM6.42857 5.46442V6.10728C6.42857 6.19434 6.39509 6.27134 6.32813 6.33831C6.26786 6.39858 6.1942 6.42871 6.10714 6.42871H5.46429C5.37723 6.42871 5.30022 6.39858 5.23326 6.33831C5.17299 6.27134 5.14286 6.19434 5.14286 6.10728V5.46442C5.14286 5.37737 5.17299 5.30371 5.23326 5.24344C5.30022 5.17648 5.37723 5.143 5.46429 5.143H6.10714C6.1942 5.143 6.26786 5.17648 6.32813 5.24344C6.39509 5.30371 6.42857 5.37737 6.42857 5.46442ZM3.85714 2.893V3.53585C3.85714 3.62291 3.82366 3.69992 3.7567 3.76688C3.69643 3.82715 3.62277 3.85728 3.53571 3.85728H2.89286C2.8058 3.85728 2.72879 3.82715 2.66183 3.76688C2.60156 3.69992 2.57143 3.62291 2.57143 3.53585V2.893C2.57143 2.80594 2.60156 2.73228 2.66183 2.67201C2.72879 2.60505 2.8058 2.57157 2.89286 2.57157H3.53571C3.62277 2.57157 3.69643 2.60505 3.7567 2.67201C3.82366 2.73228 3.85714 2.80594 3.85714 2.893ZM11.5714 8.03585V8.67871C11.5714 8.76576 11.5379 8.84277 11.471 8.90974C11.4107 8.97001 11.3371 9.00014 11.25 9.00014H10.6071C10.5201 9.00014 10.4431 8.97001 10.3761 8.90974C10.3158 8.84277 10.2857 8.76576 10.2857 8.67871V8.03585C10.2857 7.9488 10.3158 7.87514 10.3761 7.81487C10.4431 7.74791 10.5201 7.71442 10.6071 7.71442H11.25C11.3371 7.71442 11.4107 7.74791 11.471 7.81487C11.5379 7.87514 11.5714 7.9488 11.5714 8.03585ZM9 5.46442V6.10728C9 6.19434 8.96652 6.27134 8.89955 6.33831C8.83929 6.39858 8.76563 6.42871 8.67857 6.42871H8.03571C7.94866 6.42871 7.87165 6.39858 7.80469 6.33831C7.74442 6.27134 7.71429 6.19434 7.71429 6.10728V5.46442C7.71429 5.37737 7.74442 5.30371 7.80469 5.24344C7.87165 5.17648 7.94866 5.143 8.03571 5.143H8.67857C8.76563 5.143 8.83929 5.17648 8.89955 5.24344C8.96652 5.30371 9 5.37737 9 5.46442ZM6.42857 2.893V3.53585C6.42857 3.62291 6.39509 3.69992 6.32813 3.76688C6.26786 3.82715 6.1942 3.85728 6.10714 3.85728H5.46429C5.37723 3.85728 5.30022 3.82715 5.23326 3.76688C5.17299 3.69992 5.14286 3.62291 5.14286 3.53585V2.893C5.14286 2.80594 5.17299 2.73228 5.23326 2.67201C5.30022 2.60505 5.37723 2.57157 5.46429 2.57157H6.10714C6.1942 2.57157 6.26786 2.60505 6.32813 2.67201C6.39509 2.73228 6.42857 2.80594 6.42857 2.893ZM11.5714 5.46442V6.10728C11.5714 6.19434 11.5379 6.27134 11.471 6.33831C11.4107 6.39858 11.3371 6.42871 11.25 6.42871H10.6071C10.5201 6.42871 10.4431 6.39858 10.3761 6.33831C10.3158 6.27134 10.2857 6.19434 10.2857 6.10728V5.46442C10.2857 5.37737 10.3158 5.30371 10.3761 5.24344C10.4431 5.17648 10.5201 5.143 10.6071 5.143H11.25C11.3371 5.143 11.4107 5.17648 11.471 5.24344C11.5379 5.30371 11.5714 5.37737 11.5714 5.46442ZM9 2.893V3.53585C9 3.62291 8.96652 3.69992 8.89955 3.76688C8.83929 3.82715 8.76563 3.85728 8.67857 3.85728H8.03571C7.94866 3.85728 7.87165 3.82715 7.80469 3.76688C7.74442 3.69992 7.71429 3.62291 7.71429 3.53585V2.893C7.71429 2.80594 7.74442 2.73228 7.80469 2.67201C7.87165 2.60505 7.94866 2.57157 8.03571 2.57157H8.67857C8.76563 2.57157 8.83929 2.60505 8.89955 2.67201C8.96652 2.73228 9 2.80594 9 2.893ZM11.5714 2.893V3.53585C11.5714 3.62291 11.5379 3.69992 11.471 3.76688C11.4107 3.82715 11.3371 3.85728 11.25 3.85728H10.6071C10.5201 3.85728 10.4431 3.82715 10.3761 3.76688C10.3158 3.69992 10.2857 3.62291 10.2857 3.53585V2.893C10.2857 2.80594 10.3158 2.73228 10.3761 2.67201C10.4431 2.60505 10.5201 2.57157 10.6071 2.57157H11.25C11.3371 2.57157 11.4107 2.60505 11.471 2.67201C11.5379 2.73228 11.5714 2.80594 11.5714 2.893ZM9 16.7144H12.8571V1.28585H1.28571V16.7144H5.14286V14.4644C5.14286 14.3774 5.17299 14.3037 5.23326 14.2434C5.30022 14.1765 5.37723 14.143 5.46429 14.143H8.67857C8.76563 14.143 8.83929 14.1765 8.89955 14.2434C8.96652 14.3037 9 14.3774 9 14.4644V16.7144ZM14.1429 0.642996V17.3573C14.1429 17.5314 14.0792 17.6821 13.952 17.8093C13.8248 17.9365 13.6741 18.0001 13.5 18.0001H0.642857C0.46875 18.0001 0.31808 17.9365 0.190848 17.8093C0.0636161 17.6821 0 17.5314 0 17.3573V0.642996C0 0.468889 0.0636161 0.318219 0.190848 0.190987C0.31808 0.0637546 0.46875 0.000138283 0.642857 0.000138283H13.5C13.6741 0.000138283 13.8248 0.0637546 13.952 0.190987C14.0792 0.318219 14.1429 0.468889 14.1429 0.642996Z" fill="white"/>
</svg>
