<svg width="18" height="15" viewBox="0 0 18 15" fill="none" xmlns="http://www.w3.org/2000/svg">
<path d="M18 4.56006V12.5355C18 12.9775 17.8426 13.3558 17.5279 13.6705C17.2132 13.9853 16.8348 14.1426 16.3929 14.1426H1.60714C1.16518 14.1426 0.78683 13.9853 0.472098 13.6705C0.157366 13.3558 0 12.9775 0 12.5355V4.56006C0.294643 4.88818 0.632813 5.17948 1.01451 5.43394C3.43862 7.08126 5.10268 8.2364 6.0067 8.89934C6.38839 9.18059 6.69643 9.40158 6.9308 9.56229C7.17188 9.71631 7.48996 9.87702 7.88504 10.0444C8.28013 10.2051 8.64844 10.2855 8.98996 10.2855H9H9.01005C9.35156 10.2855 9.71987 10.2051 10.115 10.0444C10.51 9.87702 10.8248 9.71631 11.0592 9.56229C11.3002 9.40158 11.6116 9.18059 11.9933 8.89934C13.1317 8.07568 14.7991 6.92055 16.9955 5.43394C17.3772 5.17278 17.7121 4.88149 18 4.56006ZM18 1.60693C18 2.13595 17.8359 2.64153 17.5078 3.12367C17.1797 3.60582 16.7712 4.01765 16.2824 4.35917C13.7645 6.10693 12.1975 7.1951 11.5815 7.62367C11.5145 7.67055 11.3705 7.77434 11.1496 7.93506C10.9353 8.08908 10.7545 8.21631 10.6071 8.31675C10.4665 8.4105 10.2924 8.51765 10.0848 8.63818C9.88393 8.75872 9.69308 8.84912 9.51228 8.90939C9.33147 8.96966 9.16406 8.99979 9.01005 8.99979H9H8.98996C8.83594 8.99979 8.66853 8.96966 8.48772 8.90939C8.30692 8.84912 8.11272 8.75872 7.90513 8.63818C7.70424 8.51765 7.53013 8.4105 7.38281 8.31675C7.24219 8.21631 7.06138 8.08908 6.8404 7.93506C6.62612 7.77434 6.48549 7.67055 6.41853 7.62367C5.80915 7.1951 4.93192 6.58573 3.78683 5.79555C2.64174 4.99867 1.95536 4.51988 1.72768 4.35917C1.3125 4.07792 0.920759 3.69287 0.552455 3.20403C0.184152 2.7085 0 2.24979 0 1.82792C0 1.30559 0.137277 0.870326 0.41183 0.522112C0.69308 0.173898 1.09152 -0.00020957 1.60714 -0.00020957H16.3929C16.8281 -0.00020957 17.2031 0.157156 17.5179 0.471888C17.8393 0.786621 18 1.16497 18 1.60693Z" fill="white"/>
</svg>
