<svg width="10" height="17" viewBox="0 0 10 17" fill="none" xmlns="http://www.w3.org/2000/svg">
<path d="M9.57588 7.96876C9.68749 8.08036 9.74329 8.20871 9.74329 8.3538C9.74329 8.49889 9.68749 8.62724 9.57588 8.73885L1.77454 16.5402C1.66293 16.6518 1.53458 16.7076 1.38949 16.7076C1.2444 16.7076 1.11606 16.6518 1.00445 16.5402L0.167396 15.7031C0.0557885 15.5915 -1.50464e-05 15.4632 -1.50464e-05 15.3181C-1.50464e-05 15.173 0.0557885 15.0446 0.167396 14.933L6.74664 8.3538L0.167396 1.77456C0.0557885 1.66295 -1.50464e-05 1.5346 -1.50464e-05 1.38951C-1.50464e-05 1.24442 0.0557885 1.11608 0.167396 1.00447L1.00445 0.167416C1.11606 0.0558087 1.2444 5.00679e-06 1.38949 5.00679e-06C1.53458 5.00679e-06 1.66293 0.0558087 1.77454 0.167416L9.57588 7.96876Z" fill="white"/>
</svg>
