<svg width="10" height="17" viewBox="0 0 10 17" fill="none" xmlns="http://www.w3.org/2000/svg">
<path d="M9.57589 1.00447C9.68749 1.11608 9.7433 1.24442 9.7433 1.38951C9.7433 1.5346 9.68749 1.66295 9.57589 1.77456L2.99665 8.3538L9.57589 14.933C9.68749 15.0446 9.7433 15.173 9.7433 15.3181C9.7433 15.4632 9.68749 15.5915 9.57589 15.7031L8.73883 16.5402C8.62723 16.6518 8.49888 16.7076 8.35379 16.7076C8.2087 16.7076 8.08035 16.6518 7.96874 16.5402L0.167404 8.73885C0.0557973 8.62724 -6.30319e-06 8.49889 -6.30319e-06 8.3538C-6.30319e-06 8.20871 0.0557973 8.08036 0.167404 7.96876L7.96874 0.167416C8.08035 0.0558087 8.2087 5.00679e-06 8.35379 5.00679e-06C8.49888 5.00679e-06 8.62723 0.0558087 8.73883 0.167416L9.57589 1.00447Z" fill="white"/>
</svg>
