<svg width="24" height="15" viewBox="0 0 24 15" fill="none" xmlns="http://www.w3.org/2000/svg">
<path d="M14.4342 7.5332C14.4342 8.92606 14.1429 10.1682 13.5603 11.2598C12.9777 12.3446 12.1473 13.1917 11.0692 13.8011C9.99107 14.4171 8.75558 14.7252 7.36272 14.7252C6.36496 14.7252 5.41071 14.531 4.5 14.1426C3.58929 13.7542 2.8058 13.2319 2.14955 12.5756C1.4933 11.9194 0.970982 11.1359 0.582589 10.2252C0.194196 9.31445 0 8.36021 0 7.36244C0 6.36468 0.194196 5.41043 0.582589 4.49972C0.970982 3.58901 1.4933 2.80552 2.14955 2.14927C2.8058 1.49302 3.58929 0.970702 4.5 0.58231C5.41071 0.193917 6.36496 -0.000279784 7.36272 -0.000279784C9.2779 -0.000279784 10.9219 0.642577 12.2946 1.92829L10.2958 3.84682C9.51228 3.09012 8.5346 2.71177 7.36272 2.71177C6.53906 2.71177 5.77567 2.91936 5.07254 3.33454C4.37612 3.74972 3.82366 4.31557 3.41518 5.03209C3.0067 5.74191 2.80246 6.51869 2.80246 7.36244C2.80246 8.20619 3.0067 8.98633 3.41518 9.70285C3.82366 10.4127 4.37612 10.9752 5.07254 11.3903C5.77567 11.8055 6.53906 12.0131 7.36272 12.0131C7.91853 12.0131 8.42746 11.9361 8.88951 11.7821C9.35826 11.6281 9.7433 11.4372 10.0446 11.2095C10.346 10.9752 10.6071 10.7107 10.8281 10.416C11.0558 10.1214 11.2199 9.84347 11.3203 9.58231C11.4275 9.32115 11.5011 9.07338 11.5413 8.83901H7.36272V6.30776H14.3136C14.394 6.72963 14.4342 7.13811 14.4342 7.5332ZM23.1429 6.30776V8.41713H21.0435V10.5165H18.9342V8.41713H16.8348V6.30776H18.9342V4.20843H21.0435V6.30776H23.1429Z" fill="white"/>
</svg>
