<svg width="15" height="15" viewBox="0 0 15 15" fill="none" xmlns="http://www.w3.org/2000/svg">
<path d="M14.1429 11.1699C14.1429 11.3507 14.1094 11.5884 14.0424 11.883C13.9754 12.171 13.9051 12.3986 13.8315 12.5661C13.6908 12.9009 13.2824 13.2558 12.606 13.6308C11.9766 13.9723 11.3538 14.1431 10.7377 14.1431C10.5569 14.1431 10.3795 14.133 10.2054 14.1129C10.0313 14.0861 9.83705 14.0426 9.62277 13.9824C9.41518 13.9221 9.25781 13.8752 9.15067 13.8417C9.05022 13.8015 8.86607 13.7312 8.59821 13.6308C8.33036 13.5303 8.1663 13.4701 8.10603 13.45C7.44978 13.2156 6.86384 12.9377 6.34821 12.6163C5.49777 12.0873 4.61384 11.364 3.69643 10.4466C2.77902 9.52923 2.0558 8.6453 1.52679 7.79485C1.20536 7.27923 0.927455 6.69329 0.69308 6.03704C0.672991 5.97677 0.612723 5.81271 0.512277 5.54485C0.41183 5.27699 0.341518 5.09284 0.301339 4.9924C0.267857 4.88525 0.220982 4.72789 0.160714 4.5203C0.100446 4.30601 0.0569196 4.11182 0.0301339 3.93771C0.0100446 3.7636 0 3.58615 0 3.40534C0 2.78927 0.170759 2.1665 0.512277 1.53704C0.887277 0.8607 1.24219 0.452218 1.57701 0.311593C1.74442 0.237932 1.9721 0.167619 2.26004 0.100655C2.55469 0.0336907 2.79241 0.000208497 2.97321 0.000208497C3.06696 0.000208497 3.13728 0.0102532 3.18415 0.0303426C3.30469 0.0705214 3.48214 0.324986 3.71652 0.793736C3.79018 0.920968 3.89063 1.10177 4.01786 1.33615C4.14509 1.57052 4.26228 1.78481 4.36942 1.979C4.47656 2.1665 4.58036 2.34396 4.6808 2.51137C4.70089 2.53816 4.75781 2.62186 4.85156 2.76249C4.95201 2.90311 5.02567 3.02365 5.07254 3.12409C5.11942 3.21784 5.14286 3.31159 5.14286 3.40534C5.14286 3.53927 5.04576 3.70668 4.85156 3.90757C4.66406 4.10847 4.45647 4.29262 4.22879 4.46003C4.00781 4.62744 3.80022 4.8049 3.60603 4.9924C3.41853 5.1799 3.32478 5.33391 3.32478 5.45445C3.32478 5.51472 3.34152 5.59173 3.375 5.68548C3.40848 5.77253 3.43527 5.83949 3.45536 5.88637C3.48214 5.93324 3.52902 6.0136 3.59598 6.12744C3.66964 6.24128 3.70982 6.3049 3.71652 6.31829C4.22545 7.2357 4.80804 8.02253 5.46429 8.67878C6.12054 9.33503 6.90737 9.91762 7.82478 10.4265C7.83817 10.4332 7.90179 10.4734 8.01563 10.5471C8.12946 10.614 8.20982 10.6609 8.2567 10.6877C8.30357 10.7078 8.37054 10.7346 8.45759 10.7681C8.55134 10.8015 8.62835 10.8183 8.68862 10.8183C8.80915 10.8183 8.96317 10.7245 9.15067 10.537C9.33817 10.3428 9.51563 10.1353 9.68304 9.91427C9.85045 9.68659 10.0346 9.479 10.2355 9.2915C10.4364 9.09731 10.6038 9.00021 10.7377 9.00021C10.8315 9.00021 10.9252 9.02365 11.019 9.07052C11.1194 9.1174 11.24 9.19106 11.3806 9.2915C11.5212 9.38525 11.6049 9.44217 11.6317 9.46226C11.7991 9.56271 11.9766 9.6665 12.1641 9.77365C12.3583 9.88079 12.5725 9.99798 12.8069 10.1252C13.0413 10.2524 13.2221 10.3529 13.3493 10.4265C13.8181 10.6609 14.0725 10.8384 14.1127 10.9589C14.1328 11.0058 14.1429 11.0761 14.1429 11.1699Z" fill="white"/>
</svg>
